<svg xmlns="http://www.w3.org/2000/svg" width="25" height="24" viewBox="0 0 25 24">
    <defs>
        <linearGradient id="yt2z6jzjga" x1="9.901%" x2="100%" y1="4.935%" y2="95.065%">
            <stop offset="0%" stop-color="#DF9AE2"/>
            <stop offset="48.755%" stop-color="#A9A5FF"/>
            <stop offset="100%" stop-color="#00C5FF"/>
        </linearGradient>
    </defs>
    <g fill="none" fill-rule="evenodd">
        <g fill="url(#yt2z6jzjga)" fill-rule="nonzero" transform="translate(-28 -28)">
            <g>
                <g>
                    <path d="M11.858.026c.51 0 .9.39.9.9v3.745c1.574.399 2.732 1.82 2.732 3.52s-1.158 3.122-2.731 3.52v9.929c0 .51-.39.9-.901.9-.51 0-.9-.39-.9-.9l-.001-9.928c-1.573-.4-2.732-1.82-2.732-3.52 0-1.701 1.159-3.122 2.732-3.521V.926c0-.51.39-.9.9-.9zm8.225 0c.51 0 .9.39.9.9l.001 9.929c1.573.399 2.732 1.82 2.732 3.52s-1.159 3.122-2.732 3.52v3.745c0 .51-.39.9-.9.9-.511 0-.901-.39-.901-.9v-3.744c-1.574-.4-2.732-1.82-2.732-3.52s1.158-3.122 2.731-3.521V.926c0-.51.39-.9.901-.9zm-16.45 0c.51 0 .9.39.9.9v9.929c1.573.399 2.732 1.82 2.732 3.52s-1.159 3.122-2.732 3.52v3.745c0 .51-.39.9-.9.9-.511 0-.901-.39-.901-.9v-3.744C1.158 17.496 0 16.076 0 14.376s1.158-3.122 2.732-3.521V.926c0-.51.39-.9.9-.9zm16.45 12.518c-1.02 0-1.831.81-1.831 1.831 0 1.02.81 1.831 1.831 1.831 1.02 0 1.831-.81 1.831-1.83 0-1.021-.81-1.832-1.83-1.832zm-16.45 0c-1.021 0-1.832.81-1.832 1.831 0 1.02.81 1.831 1.831 1.831s1.832-.81 1.832-1.83c0-1.021-.81-1.832-1.832-1.832zm8.225-6.184c-1.02 0-1.831.81-1.831 1.831 0 1.02.81 1.831 1.83 1.831 1.021 0 1.832-.81 1.832-1.83 0-1.021-.81-1.832-1.831-1.832z" transform="translate(16 16) translate(12.375 12.75)"/>
                </g>
            </g>
        </g>
    </g>
</svg>
