<svg xmlns="http://www.w3.org/2000/svg" class="cabinet2" viewBox="0 0 55 31.09">
    <linearGradient id="7gnuqri0xa" x1="0" x2="55" y1="15.544" y2="15.544" gradientUnits="userSpaceOnUse">
        <stop offset="0" stop-color="#3ABFF0"/>
        <stop offset=".488" stop-color="#999EFB"/>
        <stop offset="1" stop-color="#BA73FC"/>
    </linearGradient>
    <path fill="url(#7gnuqri0xa)" d="M47.16 11.83c1.66-1.18 2.77-3.12 2.77-5.31 0-3.6-2.92-6.51-6.51-6.51-3.6 0-6.51 2.92-6.51 6.51 0 2.2 1.11 4.13 2.77 5.31-2.68.92-4.94 2.8-6.35 5.33-.65-.37-1.31-.68-2.03-.92 1.66-1.18 2.77-3.12 2.77-5.31 0-3.6-2.92-6.51-6.51-6.51s-6.51 2.92-6.51 6.51c0 2.2 1.09 4.13 2.77 5.31-.72.26-1.42.57-2.08.96-1.4-2.55-3.69-4.43-6.37-5.35 1.68-1.18 2.77-3.12 2.77-5.31C18.1 2.92 15.18 0 11.59 0S5.07 2.92 5.07 6.51c0 2.2 1.09 4.13 2.77 5.31C3.28 13.39 0 17.69 0 22.77c0 .5.06 3.1.22 3.93l1.81-.37c-.11-.54-.18-2.77-.18-3.56 0-5.37 4.37-9.74 9.74-9.74 3.62 0 6.9 1.99 8.6 5.15-2.53 2.05-4.06 5.02-4.26 8.28H16c-.02.24-.04.46-.04.7 0 .5.06 3.1.22 3.93l1.81-.37c-.11-.55-.18-2.8-.18-3.58 0-5.37 4.37-9.74 9.74-9.74 2.01 0 3.87.61 5.42 1.66l.04.02c.46.31.89.66 1.27 1.05.09.07.17.17.26.26.37.39.72.79 1.01 1.24.06.07.11.17.15.24.28.44.54.89.74 1.37.04.07.07.17.11.24.18.44.33.92.44 1.4.04.15.07.31.11.46.11.59.18 1.18.18 1.79 0 .77-.07 3.03-.18 3.58l1.81.37c.17-.83.22-3.45.22-3.93 0-.24-.02-.48-.04-.72v-.04c-.02-.39-.07-.76-.13-1.13 0-.02 0-.06-.02-.07-.06-.35-.15-.7-.24-1.05-.02-.04-.02-.09-.04-.13-.09-.31-.18-.63-.31-.92-.02-.07-.06-.15-.07-.22-.11-.26-.22-.54-.35-.77-.06-.11-.09-.2-.15-.31-.11-.22-.24-.44-.37-.65-.07-.13-.15-.24-.22-.37-.13-.2-.28-.39-.42-.57-.09-.11-.17-.24-.28-.35-.24-.3-.5-.59-.77-.85-.28-.28-.57-.54-.89-.79l-.02-.02c1.68-3.15 4.98-5.15 8.6-5.15 5.37 0 9.74 4.37 9.74 9.74 0 .77-.07 3.03-.18 3.58l1.81.37c.17-.85.22-3.45.22-3.93 0-5.11-3.28-9.41-7.84-10.97zm-35.57-.65c-2.58 0-4.67-2.1-4.67-4.67 0-2.56 2.08-4.67 4.67-4.67s4.67 2.1 4.67 4.67c-.01 2.59-2.11 4.67-4.67 4.67zm15.94 4.43c-2.58 0-4.67-2.1-4.67-4.67 0-2.58 2.1-4.67 4.67-4.67s4.67 2.1 4.67 4.67-2.09 4.67-4.67 4.67zm15.88-4.43c-2.58 0-4.67-2.1-4.67-4.67s2.08-4.67 4.67-4.67 4.67 2.1 4.67 4.67c0 2.59-2.1 4.67-4.67 4.67z"/>
</svg>
