<svg xmlns="http://www.w3.org/2000/svg" class="cabinet1" viewBox="0 0 49 49">
    <linearGradient id="69jz8weada" x1="-1.75" x2="50.764" y1="27.544" y2="27.544" gradientUnits="userSpaceOnUse">
        <stop offset="0" stop-color="#3ABFF0"/>
        <stop offset=".488" stop-color="#999EFB"/>
        <stop offset="1" stop-color="#BA73FC"/>
    </linearGradient>
    <path fill="url(#69jz8weada)" d="M22.45 6.09h-.99C9.63 6.09 0 15.69 0 27.53S9.63 49 21.47 49c11.84 0 21.47-9.63 21.47-21.45v-.99H22.45V6.09zm18.49 22.43c-.53 10.3-9.05 18.5-19.47 18.5-10.75 0-19.49-8.74-19.49-19.49 0-10.4 8.2-18.94 18.5-19.45v20.44h20.46z"/>
    <linearGradient id="4bdj2myk1b" x1="-1.75" x2="50.764" y1="11.227" y2="11.227" gradientUnits="userSpaceOnUse">
        <stop offset="0" stop-color="#3ABFF0"/>
        <stop offset=".488" stop-color="#999EFB"/>
        <stop offset="1" stop-color="#BA73FC"/>
    </linearGradient>
    <path fill="url(#4bdj2myk1b)" d="M27.44 0h-.99v22.45H48.9v-.99C48.9 9.63 39.28 0 27.44 0zm.98 20.48V2c9.96.51 17.99 8.52 18.48 18.48H28.42z"/>
</svg>
