<svg xmlns="http://www.w3.org/2000/svg" class="hero1" viewBox="0 0 38 43">
    <linearGradient id="q0si3jmh2a" x1="-.912" x2="42.776" y1="21.102" y2="22.04" gradientUnits="userSpaceOnUse">
        <stop offset="0" stop-color="#3ABFF0"/>
        <stop offset=".488" stop-color="#999EFB"/>
        <stop offset="1" stop-color="#BA73FC"/>
    </linearGradient>
    <path fill="url(#q0si3jmh2a)" d="M33.67 3.39c-.89-.9-1.79-1.8-2.69-2.69-.26-.26-.57-.47-.86-.7H14.67c-1.21.28-2.34.71-3.26 1.59-1.17 1.12-1.84 2.47-1.9 4.1-.04 1.06-.02 2.12-.02 3.19v.67c-1.14 0-2.22-.06-3.29.02-.9.07-1.83.19-2.66.51-1.69.66-2.78 1.95-3.34 3.68-.06.19-.13.38-.2.58V38.3c.13.34.24.69.39 1.03.87 1.95 2.35 3.15 4.45 3.57.11.02.21.07.31.1H23.4c.32-.09.64-.17.96-.26 2.39-.71 4.12-2.93 4.2-5.43.04-1.06.01-2.13.02-3.19v-.67c1.1 0 2.14.03 3.18-.01.7-.03 1.43-.07 2.1-.26 2-.58 3.32-1.92 4-3.88.07-.21.14-.42.22-.63V7.84c-1.47-1.48-2.94-2.97-4.41-4.45zm-2.65.95l2.78 2.78h-2.78V4.34zm-4.84 33c-.11 1.9-1.7 3.27-3.73 3.28-3.02.01-6.05 0-9.07 0H6.21c-2.4 0-3.89-1.48-3.89-3.86V15.82c0-2.42 1.45-3.86 3.87-3.87h3.3v.72c0 4.87-.01 9.74 0 14.61.01 3.05 1.87 5.41 4.74 6.02.52.11 1.07.14 1.61.14 3.21.01 6.42.01 9.63.01h.72c0 1.36.06 2.63-.01 3.89zm9.57-10.19c0 2.45-1.44 3.9-3.89 3.9H15.79c-2.47 0-3.92-1.45-3.92-3.94V6.34c0-2.47 1.47-3.95 3.92-3.95H28.58v3.32c0 .8-.01 1.61 0 2.41.01 1.01.43 1.44 1.43 1.44 1.68.01 3.36 0 5.04 0h.66c.01.24.03.44.03.64.01 5.64.01 11.29.01 16.95z"/>
    <linearGradient id="kigox8s3gb" x1="-.832" x2="42.855" y1="17.389" y2="18.326" gradientUnits="userSpaceOnUse">
        <stop offset="0" stop-color="#3ABFF0"/>
        <stop offset=".488" stop-color="#999EFB"/>
        <stop offset="1" stop-color="#BA73FC"/>
    </linearGradient>
    <path fill="url(#kigox8s3gb)" d="M29.63 16.72c-1.92-.02-3.84 0-5.77 0-1.94 0-3.88-.01-5.82 0-.91 0-1.44.53-1.37 1.32.06.67.57 1.08 1.39 1.08 2.37.01 4.74 0 7.11 0h4.42c.59 0 1.07-.2 1.3-.78.33-.82-.27-1.61-1.26-1.62z"/>
    <linearGradient id="1hre7l3gpc" x1="-.73" x2="42.958" y1="12.617" y2="13.555" gradientUnits="userSpaceOnUse">
        <stop offset="0" stop-color="#3ABFF0"/>
        <stop offset=".488" stop-color="#999EFB"/>
        <stop offset="1" stop-color="#BA73FC"/>
    </linearGradient>
    <path fill="url(#1hre7l3gpc)" d="M18.03 14.33c3.84.01 7.69 0 11.53 0 .86 0 1.4-.46 1.42-1.17.01-.73-.54-1.2-1.44-1.2H18.01c-.52 0-.96.14-1.22.63-.45.85.17 1.74 1.24 1.74z"/>
    <linearGradient id="okrzcg960d" x1="-.936" x2="42.752" y1="22.235" y2="23.173" gradientUnits="userSpaceOnUse">
        <stop offset="0" stop-color="#3ABFF0"/>
        <stop offset=".488" stop-color="#999EFB"/>
        <stop offset="1" stop-color="#BA73FC"/>
    </linearGradient>
    <path fill="url(#okrzcg960d)" d="M22.49 21.5c-1.51-.01-3.02-.01-4.53 0-.78 0-1.28.48-1.29 1.17-.01.73.48 1.19 1.31 1.2.76.01 1.53 0 2.3 0 .75 0 1.49.01 2.24 0 .77-.01 1.29-.48 1.31-1.16 0-.7-.54-1.2-1.34-1.21z"/>
</svg>
