<svg xmlns="http://www.w3.org/2000/svg" class="hero3" viewBox="0 0 41 44.48">
    <linearGradient id="34ciws96ja" x1="-1.337" x2="44.788" y1="35.067" y2="35.348" gradientUnits="userSpaceOnUse">
        <stop offset="0" stop-color="#3ABFF0"/>
        <stop offset=".488" stop-color="#999EFB"/>
        <stop offset="1" stop-color="#BA73FC"/>
    </linearGradient>
    <path fill="url(#34ciws96ja)" d="M39.46 33.62h.01v-6.28H36.5v1.97h-1.97v-.98h-.01v-.01h-2.96v5.3h.01v.02H14.7c-.56-4.46-3.62-7.89-7.3-7.89-4.09 0-7.4 4.2-7.4 9.37 0 5.17 3.32 9.37 7.4 9.37 3.68 0 6.73-3.43 7.3-7.89h26.24v-2.96h-1.48v-.02zM7.4 41.52c-2.41 0-4.44-2.93-4.44-6.41C2.97 31.64 5 28.7 7.4 28.7c2.41 0 4.44 2.93 4.44 6.41s-2.03 6.41-4.44 6.41z"/>
    <linearGradient id="a7y88ekocb" x1="-1.179" x2="44.946" y1="9.158" y2="9.44" gradientUnits="userSpaceOnUse">
        <stop offset="0" stop-color="#3ABFF0"/>
        <stop offset=".488" stop-color="#999EFB"/>
        <stop offset="1" stop-color="#BA73FC"/>
    </linearGradient>
    <path fill="url(#a7y88ekocb)" d="M1.48 17.15h2.97v-1.97h1.97v.98h.01v.01h2.96v-5.3h-.02v-.02h16.87c.56 4.46 3.62 7.89 7.3 7.89 4.09 0 7.41-4.2 7.41-9.37 0-5.17-3.32-9.37-7.4-9.37-3.68 0-6.73 3.43-7.3 7.89H0v2.96h1.48v6.3zM33.55 2.96c2.41 0 4.44 2.93 4.44 6.41-.01 3.48-2.04 6.41-4.44 6.41-2.41 0-4.44-2.93-4.44-6.41s2.03-6.41 4.44-6.41z"/>
</svg>
