<svg xmlns="http://www.w3.org/2000/svg" class="hero2" viewBox="0 0 52 53.82">
    <linearGradient id="ccvqvc4dta" x1="-5.871" x2="53.379" y1="27.696" y2="28.728" gradientTransform="matrix(1 0 0 -1 0 55)" gradientUnits="userSpaceOnUse">
        <stop offset="0" stop-color="#3ABFF0"/>
        <stop offset=".488" stop-color="#999EFB"/>
        <stop offset="1" stop-color="#BA73FC"/>
    </linearGradient>
    <path fill="url(#ccvqvc4dta)" d="M48.89 27.27c-.77-1.62-1.55-3.24-2.34-4.85-.13-.27-.11-.45.09-.67 1.51-1.72 2.43-3.72 2.74-5.98.33-2.4-.06-4.69-1.25-6.82-1.77-3.13-4.51-4.83-8.04-5.33-2.06-.29-4.06-.15-5.95.77-.73.35-1.4.81-2.1 1.22-.1.06-.2.11-.33.18-.23-.32-.46-.63-.67-.94C29.17 2.03 26.51.51 23.2.05c-.05-.01-.09-.03-.13-.05h-2.86c-.88.26-1.81.43-2.64.8-3.96 1.73-6.03 4.85-6.5 9.08-.2 1.86.03 3.7.85 5.4.4.83.98 1.57 1.5 2.34.74 1.09 1.71 1.91 2.87 2.53.2.11.37.25.62.42-1.04.52-2 1.02-2.96 1.49-3.02 1.47-6.04 2.93-9.06 4.4-1.34.65-2.68 1.32-4.02 1.97-.39.17-.7.41-.87.81v.56c.56 1.16 1.11 2.31 1.67 3.47 1.2 2.49 2.4 4.99 3.61 7.48 1.51 3.12 3.02 6.23 4.53 9.35.53 1.09 1.08 2.18 1.62 3.27.21.41.93.6 1.46.36.97-.44 1.93-.9 2.89-1.36 2.62-1.26 5.24-2.52 7.86-3.79 2.73-1.32 5.45-2.66 8.18-3.99 3.95-1.92 7.89-3.83 11.84-5.76 2.39-1.17 4.78-2.35 7.16-3.55.43-.22.8-.54 1.19-.82v-.63c-1.04-2.18-2.08-4.37-3.12-6.56zM29.96 13.82c.28-5.06 5.14-8.3 8.91-8.18 5.08.16 8.64 4.83 8.44 9.05-.11 4.93-4.95 8.6-9.35 8.3-4.61-.32-8.24-4.82-8-9.17zm-16.35-.57c-1.37-4 .65-7.91 3.78-9.82 1.43-.87 2.88-1.28 4.55-1.3 1.96 0 3.8.63 5.39 1.95.41.34.75.79 1.08 1.22.44.58.84 1.19 1.26 1.79.24.35.22.69-.01 1.04-1.31 1.96-1.84 4.16-1.88 6.48-.01.62.08 1.25.19 1.86.05.3-.01.47-.23.65-2.33 1.96-4.95 2.81-7.98 2.05-3.2-.79-5.13-2.93-6.15-5.92zM5.26 33.62c-.16.16-.34.31-.57.51-.29-.55-.55-1.04-.79-1.53-.36-.72-.7-1.46-1.06-2.18-.13-.26-.05-.4.2-.51 1.08-.5 2.15-1.02 3.23-1.53.44-.21.51-.18.6.3.32 1.92-.26 3.56-1.61 4.94zm7.68 17.54c-.67-1.37-1.31-2.68-1.95-4 2.2-.77 4.94.39 5.94 2.05l-3.99 1.95zm29.65-18.1c-.16.93-.13 1.85.04 2.76.02.08.02.16.03.24.07.64.07.64-.51.93-3.31 1.61-6.63 3.21-9.94 4.82-3.29 1.6-6.58 3.2-9.88 4.79-.92.44-1.84.87-2.75 1.33-.33.17-.55.11-.79-.16-1.42-1.63-3.19-2.67-5.35-2.98-1.02-.14-2.04-.16-3.04.09-.35.09-.54-.01-.7-.35-1.27-2.63-2.55-5.25-3.84-7.87-.16-.32-.12-.48.16-.71 2.36-1.99 3.36-4.53 3.05-7.59-.03-.29-.07-.58-.11-.86-.04-.3.08-.48.35-.6 1.88-.91 3.75-1.82 5.63-2.74 1.69-.82 3.37-1.65 5.07-2.45.24-.12.56-.14.84-.12 2.81.21 5.38-.45 7.68-2.12.08-.05.15-.11.23-.16.02-.01.04-.01.1-.03.3.47.57.95.88 1.39 1.5 2.09 3.56 3.39 6.02 4.06 2.58.7 5.1.5 7.55-.57.31-.14.6-.3.9-.46.22-.12.36-.06.47.17.49 1.01.99 2.02 1.46 3.03.04.08-.02.26-.09.33-.53.51-1.13.97-1.62 1.52-1.08 1.24-1.57 2.73-1.84 4.31zm6.47.53c-1.34.67-2.69 1.34-4.04 2.02-1.04-1.77.19-5.17 2.26-6.33.22.45.45.9.66 1.36.4.85.79 1.7 1.19 2.55.06.14.15.29-.07.4z"/>
    <linearGradient id="4gahllwn0b" x1="-5.78" x2="53.47" y1="22.464" y2="23.495" gradientTransform="matrix(1 0 0 -1 0 55)" gradientUnits="userSpaceOnUse">
        <stop offset="0" stop-color="#3ABFF0"/>
        <stop offset=".488" stop-color="#999EFB"/>
        <stop offset="1" stop-color="#BA73FC"/>
    </linearGradient>
    <path fill="url(#4gahllwn0b)" d="M29.57 31.11c-.78-.24-1.57-.4-2.39-.39-.32.01-.65.06-.83-.34-.42-.96-.88-1.92-1.3-2.88-.08-.17-.06-.39-.09-.59.2.04.4.06.59.11.4.11.79.29 1.19.33.52.05.84-.21 1.01-.67.18-.48.1-.9-.28-1.23-.2-.17-.44-.31-.68-.41-.87-.34-1.77-.47-2.7-.37-.23.02-.36-.02-.47-.24-.17-.37-.36-.73-.58-1.07-.32-.51-.9-.67-1.39-.44-.6.29-.83.78-.62 1.4.11.33.22.66.39.96s.11.49-.12.72c-.91.92-1.42 2.03-1.56 3.33-.15 1.35.89 3.17 2.24 3.53.89.24 1.78.43 2.71.39.26-.01.41.08.52.3.23.49.48.98.71 1.47.31.67.61 1.34.95 2.1-.34 0-.61.02-.88 0-.68-.06-1.36-.15-2.04-.22-.4-.04-.77.07-.93.46-.31.71-.27 1.45.72 1.77.17.05.34.09.51.12.97.16 1.93.21 2.91.09.67-.08.73-.02 1.02.58.14.29.29.58.48.84.28.39.89.5 1.36.29.39-.17.71-.76.6-1.19-.11-.4-.26-.8-.44-1.16-.14-.28-.1-.45.1-.67.79-.86 1.36-1.83 1.56-3.01.27-1.68-.78-3.44-2.27-3.91zm-7.31-.85c-.38-.62-.33-1.56.08-2.14.18-.25.31-.15.4.05.24.5.47 1.01.7 1.51l.6 1.33c-.71-.11-1.38-.11-1.78-.75zm6.99 5.6c-.05.07-.13.12-.23.22-.16-.32-.31-.6-.45-.89-.27-.57-.53-1.13-.78-1.71-.05-.12-.07-.31-.01-.42.04-.07.25-.06.38-.04 1.53.24 1.8 1.79 1.09 2.84z"/>
    <linearGradient id="wqz029cgzc" x1="-6.086" x2="53.164" y1="40.075" y2="41.106" gradientTransform="matrix(1 0 0 -1 0 55)" gradientUnits="userSpaceOnUse">
        <stop offset="0" stop-color="#3ABFF0"/>
        <stop offset=".488" stop-color="#999EFB"/>
        <stop offset="1" stop-color="#BA73FC"/>
    </linearGradient>
    <path fill="url(#wqz029cgzc)" d="M33.81 12.56c-.06 1.6 1.05 2.86 2.64 3.03.8.08 1.57-.02 2.34-.23.64-.17 1.27-.36 1.92-.5.61-.13 1.07.26 1.12.88.04.45-.15.79-.48 1.06-.51.42-1.1.68-1.76.76-.41.05-.83.07-1.25.11-.56.05-1 .44-1.06.94-.08.58.23 1.09.81 1.26.28.08.6.1.89.08.47-.03.96-.07 1.41-.18.56-.14 1.03-.18 1.5.29.38.38 1.03.26 1.42-.13.34-.33.41-.95.12-1.38-.17-.25-.15-.46-.01-.71.37-.66.62-1.35.62-2.11.01-1.82-1.16-3.08-2.98-3.11-.7-.01-1.4.14-2.1.27-.61.12-1.21.33-1.82.46-.41.08-.78.01-1-.43-.22-.44-.24-.86.1-1.23.55-.61 1.16-1.08 2.06-.83.11.03.23.04.34.05.52.06 1-.23 1.2-.71.25-.61-.06-1.28-.73-1.5-.69-.23-1.39-.22-2.1-.1-.35.06-.64.05-.89-.29-.13-.17-.4-.29-.63-.31-.98-.1-1.59.83-1.13 1.73.16.31.13.53-.03.8-.33.63-.49 1.32-.52 2.03z"/>
    <linearGradient id="smvci0uazd" x1="-6.154" x2="53.096" y1="43.975" y2="45.006" gradientTransform="matrix(1 0 0 -1 0 55)" gradientUnits="userSpaceOnUse">
        <stop offset="0" stop-color="#3ABFF0"/>
        <stop offset=".488" stop-color="#999EFB"/>
        <stop offset="1" stop-color="#BA73FC"/>
    </linearGradient>
    <path fill="url(#smvci0uazd)" d="M22.07 11.78c.56-.11 1.1-.3 1.66-.4.65-.12 1.06.16 1.12.81.03.27-.06.62-.23.84-.64.86-1.58 1.11-2.61 1.11-.19 0-.38-.04-.55.01-.29.08-.62.16-.83.36-.36.34-.38.82-.19 1.26.18.42.54.69 1.02.66.83-.06 1.66-.16 2.48-.25.28-.03.52-.07.77.16.37.34.94.31 1.36.01.43-.32.64-.9.41-1.35-.13-.27-.07-.47.03-.71.2-.48.4-.97.5-1.47.42-2.13-.91-3.74-3.07-3.67-.82.02-1.64.26-2.46.42-.44.08-.88.23-1.32.3-.35.06-.72.02-.93-.33-.23-.38-.28-.8-.02-1.18.43-.61 1.23-1.23 2.17-1.01.1.02.2.04.31.06.6.09 1.1-.25 1.24-.84.15-.59-.13-1.17-.73-1.31-.59-.13-1.22-.24-1.82-.18-.53.05-.93.06-1.34-.35-.38-.38-1.06-.28-1.47.08-.28.25-.38 1.01-.14 1.37.18.28.12.5 0 .78-.21.5-.45 1.01-.53 1.53-.3 1.99.86 3.73 3.06 3.64.72-.05 1.42-.22 2.11-.35z"/>
</svg>
